<svg width="512" height="512" viewBox="0 0 512 512" fill="none" xmlns="http://www.w3.org/2000/svg">
<g clip-path="url(#clip0_120:713)">
<rect width="512" height="512" rx="256" fill="#FF7070"/>
<path d="M164.429 347.306C158.456 339.626 150.989 324.052 137.976 304.639C130.509 293.972 112.162 273.706 106.616 263.252C102.617 256.9 101.457 249.165 103.416 241.919C106.764 228.142 119.833 219.003 133.922 220.586C144.82 222.775 154.834 228.116 162.722 235.946C168.23 241.133 173.297 246.771 177.869 252.799C181.282 257.066 182.136 258.772 185.976 263.679C189.816 268.586 192.376 273.492 190.456 266.239C188.962 255.572 186.402 237.652 182.776 221.652C180.002 209.492 179.362 207.572 176.802 198.399C174.242 189.226 172.749 181.546 169.976 171.092C167.441 160.822 165.447 150.425 164.002 139.946C161.313 126.542 163.27 112.622 169.549 100.479C177.003 93.4683 187.937 91.6179 197.282 95.7858C206.682 102.726 213.69 112.418 217.336 123.519C222.927 137.181 226.658 151.531 228.429 166.186C231.842 187.519 238.456 218.666 238.669 225.066C238.669 217.172 237.176 200.532 238.669 193.066C240.149 185.282 245.559 178.822 252.962 175.999C259.316 174.05 266.037 173.611 272.589 174.719C279.203 176.102 285.062 179.906 289.016 185.386C293.958 197.831 296.701 211.041 297.122 224.426C297.694 212.705 299.7 201.098 303.096 189.866C306.661 184.843 311.867 181.221 317.816 179.626C324.868 178.336 332.097 178.336 339.149 179.626C344.933 181.559 349.992 185.205 353.656 190.079C358.174 201.393 360.908 213.34 361.762 225.492C361.762 228.479 363.256 217.172 367.949 209.706C370.388 202.465 376.505 197.076 383.995 195.568C391.485 194.06 399.21 196.662 404.261 202.394C409.312 208.127 410.921 216.119 408.482 223.359C408.482 237.226 408.482 236.586 408.482 245.972C408.482 255.359 408.482 263.679 408.482 271.572C407.705 284.056 405.994 296.464 403.362 308.692C399.65 319.511 394.483 329.774 388.002 339.199C377.644 350.718 369.085 363.736 362.616 377.812C361.011 384.806 360.294 391.973 360.482 399.146C360.461 405.773 361.322 412.373 363.042 418.772C354.32 419.695 345.525 419.695 336.802 418.772C328.482 417.492 318.242 400.852 315.469 395.732C314.097 392.983 311.288 391.246 308.216 391.246C305.143 391.246 302.335 392.983 300.962 395.732C296.269 403.839 285.816 418.559 278.562 419.412C264.269 421.119 234.829 419.412 211.576 419.412C211.576 419.412 215.416 398.079 206.669 390.399C197.922 382.719 188.962 373.759 182.349 367.786L164.429 347.306Z" fill="white"/>
<path fill-rule="evenodd" clip-rule="evenodd" d="M164.429 347.306C158.456 339.626 150.989 324.052 137.976 304.639C130.509 293.972 112.162 273.706 106.616 263.252C102.617 256.9 101.457 249.165 103.416 241.919C106.764 228.142 119.833 219.003 133.922 220.586C144.82 222.775 154.834 228.116 162.722 235.946C168.23 241.133 173.297 246.77 177.869 252.799C181.282 257.066 182.136 258.772 185.976 263.679C189.816 268.586 192.376 273.492 190.456 266.239C188.962 255.572 186.402 237.652 182.776 221.652C180.002 209.492 179.362 207.572 176.802 198.399C174.242 189.226 172.749 181.546 169.976 171.092C167.441 160.822 165.447 150.425 164.002 139.946C161.313 126.542 158 111 167 100C176 89.0002 187.896 88.5711 197.282 95.7856C206.669 103 213.69 112.418 217.336 123.519C222.927 137.181 226.658 151.531 228.429 166.186C231.842 187.519 238.456 218.666 238.669 225.066C238.669 217.172 237.176 200.532 238.669 193.066C240.149 185.282 245.559 178.822 252.962 175.999C259.316 174.05 266.037 173.611 272.589 174.719C279.203 176.102 285.062 179.906 289.016 185.386C293.958 197.831 296.701 211.041 297.122 224.426C297.694 212.705 299.7 201.098 303.096 189.866C306.661 184.843 311.867 181.221 317.816 179.626C324.868 178.336 332.097 178.336 339.149 179.626C344.933 181.559 349.992 185.205 353.656 190.079C358.174 201.393 360.908 213.34 361.763 225.492C361.763 228.479 363.256 217.172 367.949 209.706C370.388 202.465 376.505 197.076 383.995 195.567C391.485 194.059 399.21 196.662 404.261 202.394C409.312 208.127 410.921 216.118 408.482 223.359C408.482 237.226 408.482 236.586 408.482 245.972C408.482 255.359 408.482 263.679 408.482 271.572C407.705 284.056 405.994 296.464 403.362 308.692C399.65 319.511 394.483 329.774 388.003 339.199C377.644 350.718 369.085 363.736 362.616 377.812C361.011 384.805 360.294 391.973 360.482 399.146C360.461 405.772 361.322 412.373 363.042 418.772C354.32 419.694 345.525 419.694 336.802 418.772C328.482 417.492 318.242 400.852 315.469 395.732C314.097 392.983 311.288 391.246 308.216 391.246C305.143 391.246 302.335 392.983 300.962 395.732C296.269 403.839 285.816 418.559 278.562 419.412C264.269 421.119 234.829 419.412 211.576 419.412C211.576 419.412 215.416 398.079 206.669 390.399C197.922 382.719 188.962 373.759 182.349 367.786L164.429 347.306Z" stroke="black" stroke-width="16" stroke-linecap="round" stroke-linejoin="round"/>
<path d="M345.334 358.953V285.315C345.334 280.907 341.752 277.334 337.334 277.334C332.916 277.334 329.334 280.907 329.334 285.315V358.953C329.334 363.361 332.916 366.934 337.334 366.934C341.752 366.934 345.334 363.361 345.334 358.953Z" fill="black"/>
<path d="M303.093 358.926L302.666 285.25C302.64 280.853 299.038 277.309 294.62 277.334C290.202 277.359 286.641 280.945 286.666 285.342L287.093 359.018C287.118 363.415 290.721 366.959 295.139 366.934C299.557 366.908 303.118 363.323 303.093 358.926Z" fill="black"/>
<path d="M244 285.419L244.427 358.943C244.453 363.382 248.055 366.96 252.473 366.934C256.892 366.908 260.452 363.288 260.427 358.849L260 285.325C259.974 280.886 256.372 277.308 251.953 277.334C247.535 277.36 243.974 280.98 244 285.419Z" fill="black"/>
</g>
<defs>
<clipPath id="clip0_120:713">
<rect width="512" height="512" rx="256" fill="white"/>
</clipPath>
</defs>
</svg>
