<svg width="64" height="64" viewBox="0 0 64 64" fill="none" xmlns="http://www.w3.org/2000/svg">
<g clip-path="url(#clip0_33_2)">
<circle cx="31.5" cy="31.5" r="6.5" fill="#FC532A" style="fill:#FC532A;fill:color(display-p3 0.9882 0.3255 0.1647);fill-opacity:1;"/>
<circle cx="32" cy="16" r="5" fill="#FC532A" style="fill:#FC532A;fill:color(display-p3 0.9882 0.3255 0.1647);fill-opacity:1;"/>
<circle cx="47" cy="17" r="4" fill="#FC532A" style="fill:#FC532A;fill:color(display-p3 0.9882 0.3255 0.1647);fill-opacity:1;"/>
<circle cx="48" cy="32" r="5" fill="#FC532A" style="fill:#FC532A;fill:color(display-p3 0.9882 0.3255 0.1647);fill-opacity:1;"/>
<circle cx="17" cy="17" r="4" fill="#FC532A" style="fill:#FC532A;fill:color(display-p3 0.9882 0.3255 0.1647);fill-opacity:1;"/>
<circle cx="19" cy="5" r="3" fill="#FC532A" style="fill:#FC532A;fill:color(display-p3 0.9882 0.3255 0.1647);fill-opacity:1;"/>
<circle cx="19" cy="59" r="3" fill="#FC532A" style="fill:#FC532A;fill:color(display-p3 0.9882 0.3255 0.1647);fill-opacity:1;"/>
<circle cx="32" cy="3" r="3" fill="#FC532A" style="fill:#FC532A;fill:color(display-p3 0.9882 0.3255 0.1647);fill-opacity:1;"/>
<circle cx="32" cy="61" r="3" fill="#FC532A" style="fill:#FC532A;fill:color(display-p3 0.9882 0.3255 0.1647);fill-opacity:1;"/>
<circle cx="45" cy="5" r="3" fill="#FC532A" style="fill:#FC532A;fill:color(display-p3 0.9882 0.3255 0.1647);fill-opacity:1;"/>
<circle cx="45" cy="59" r="3" fill="#FC532A" style="fill:#FC532A;fill:color(display-p3 0.9882 0.3255 0.1647);fill-opacity:1;"/>
<circle cx="59" cy="19" r="3" fill="#FC532A" style="fill:#FC532A;fill:color(display-p3 0.9882 0.3255 0.1647);fill-opacity:1;"/>
<circle cx="5" cy="19" r="3" fill="#FC532A" style="fill:#FC532A;fill:color(display-p3 0.9882 0.3255 0.1647);fill-opacity:1;"/>
<circle cx="61" cy="32" r="3" fill="#FC532A" style="fill:#FC532A;fill:color(display-p3 0.9882 0.3255 0.1647);fill-opacity:1;"/>
<circle cx="3" cy="32" r="3" fill="#FC532A" style="fill:#FC532A;fill:color(display-p3 0.9882 0.3255 0.1647);fill-opacity:1;"/>
<circle cx="59" cy="45" r="3" fill="#FC532A" style="fill:#FC532A;fill:color(display-p3 0.9882 0.3255 0.1647);fill-opacity:1;"/>
<circle cx="5" cy="45" r="3" fill="#FC532A" style="fill:#FC532A;fill:color(display-p3 0.9882 0.3255 0.1647);fill-opacity:1;"/>
<circle cx="16" cy="32" r="5" fill="#FC532A" style="fill:#FC532A;fill:color(display-p3 0.9882 0.3255 0.1647);fill-opacity:1;"/>
<circle cx="17" cy="47" r="4" fill="#FC532A" style="fill:#FC532A;fill:color(display-p3 0.9882 0.3255 0.1647);fill-opacity:1;"/>
<circle cx="32" cy="48" r="5" fill="#FC532A" style="fill:#FC532A;fill:color(display-p3 0.9882 0.3255 0.1647);fill-opacity:1;"/>
<circle cx="47" cy="47" r="4" fill="#FC532A" style="fill:#FC532A;fill:color(display-p3 0.9882 0.3255 0.1647);fill-opacity:1;"/>
</g>
<defs>
<clipPath id="clip0_33_2">
<path d="M0 8C0 3.58172 3.58172 0 8 0H56C60.4183 0 64 3.58172 64 8V56C64 60.4183 60.4183 64 56 64H8C3.58172 64 0 60.4183 0 56V8Z" fill="white" style="fill:white;fill-opacity:1;"/>
</clipPath>
</defs>
</svg>
