<svg width="16" height="16" viewBox="0 0 16 16" fill="none" xmlns="http://www.w3.org/2000/svg">
  <style>
    path {
      fill: #050505;
    }
    @media (prefers-color-scheme: dark) {
      path {
        fill: #fefefe;
      }
    }
  </style>
  <path d="M71.2696 109.793C69.3988 107.339 65.8948 106.848 63.4214 108.704C60.9886 110.528 60.4939 114.203 62.3278 116.62C62.5101 116.853 62.6956 117.083 62.8882 117.307C63.2156 117.689 63.6757 118.199 64.2691 118.792C65.4533 119.976 67.1869 121.513 69.4771 123.04C74.0791 126.108 80.9475 129.141 89.9992 129.141C99.0517 129.141 105.92 126.108 110.522 123.04C112.812 121.513 114.546 119.976 115.73 118.792C116.323 118.199 116.783 117.689 117.111 117.307L117.703 116.579C119.566 114.093 119.063 110.567 116.578 108.704C114.104 106.848 110.6 107.339 108.73 109.793L108.72 109.805C108.652 109.889 108.334 110.278 107.775 110.837C107.026 111.587 105.859 112.628 104.281 113.679C101.149 115.768 96.4162 117.891 89.9992 117.891C83.583 117.891 78.8497 115.768 75.7177 113.679C74.1404 112.628 72.9736 111.587 72.2241 110.837C71.8914 110.504 71.5629 110.162 71.2696 109.793Z" />
  <path d="M120 88.125C125.178 88.125 129.375 83.928 129.375 78.75C129.375 73.5723 125.178 69.375 120 69.375C114.822 69.375 110.625 73.5723 110.625 78.75C110.625 83.928 114.822 88.125 120 88.125Z" />
  <path d="M67.5 78.75C67.5 83.928 63.3027 88.125 58.125 88.125C52.9473 88.125 48.75 83.928 48.75 78.75C48.75 73.5723 52.9473 69.375 58.125 69.375C63.3027 69.375 67.5 73.5723 67.5 78.75Z" />
  <path fill-rule="evenodd" clip-rule="evenodd" d="M90 7.5C44.4365 7.5 7.5 44.4365 7.5 90C7.5 135.563 44.4365 172.5 90 172.5C135.563 172.5 172.5 135.563 172.5 90C172.5 44.4365 135.563 7.5 90 7.5ZM90 20.8594C51.8147 20.8594 20.8594 51.8147 20.8594 90C20.8594 128.185 51.8147 159.141 90 159.141C128.185 159.141 159.141 128.185 159.141 90C159.141 51.8147 128.185 20.8594 90 20.8594Z" />
</svg>
