<svg width="128" height="128" viewBox="0 0 128 128" fill="none" xmlns="http://www.w3.org/2000/svg">
<path fill-rule="evenodd" clip-rule="evenodd" d="M12 64C12 50.2087 17.4786 36.9823 27.2305 27.2305C36.9823 17.4786 50.2087 12 64 12C77.7913 12 91.0176 17.4786 100.77 27.2305C110.522 36.9823 116 50.2087 116 64C116 77.7913 110.522 91.0176 100.77 100.77C91.0176 110.522 77.7913 116 64 116C50.2087 116 36.9823 110.522 27.2305 100.77C17.4786 91.0176 12 77.7913 12 64ZM64 0C47.0262 0 30.7475 6.74284 18.7452 18.7452C6.74284 30.7475 0 47.0262 0 64C0 80.9736 6.74284 97.2528 18.7452 109.255C30.7475 121.257 47.0262 128 64 128C80.9736 128 97.2528 121.257 109.255 109.255C121.257 97.2528 128 80.9736 128 64C128 47.0262 121.257 30.7475 109.255 18.7452C97.2528 6.74284 80.9736 0 64 0ZM40 64C42.1218 64 44.1566 63.1571 45.6569 61.6569C47.1571 60.1566 48 58.1218 48 56C48 53.8782 47.1571 51.8434 45.6569 50.3431C44.1566 48.8429 42.1218 48 40 48C37.8782 48 35.8434 48.8429 34.3431 50.3431C32.8429 51.8434 32 53.8782 32 56C32 58.1218 32.8429 60.1566 34.3431 61.6569C35.8434 63.1571 37.8782 64 40 64ZM96 56C96 58.1218 95.1568 60.1566 93.6568 61.6569C92.1568 63.1571 90.1216 64 88 64C85.8784 64 83.8432 63.1571 82.3432 61.6569C80.8432 60.1566 80 58.1218 80 56C80 53.8782 80.8432 51.8434 82.3432 50.3431C83.8432 48.8429 85.8784 48 88 48C90.1216 48 92.1568 48.8429 93.6568 50.3431C95.1568 51.8434 96 53.8782 96 56ZM42.56 77.088C43.8507 76.1842 45.4451 75.8245 46.9989 76.0865C48.5526 76.3484 49.941 77.211 50.864 78.488L50.92 78.56C51.7428 79.5036 52.6839 80.3368 53.72 81.04C55.832 82.464 59.184 84 64 84C68.816 84 72.16 82.464 74.28 81.032C75.3161 80.3288 76.2572 79.4956 77.08 78.552L77.136 78.488C78.059 77.1916 79.4591 76.315 81.028 76.051C82.5976 75.7869 84.208 76.157 85.504 77.08C86.8 78.003 87.6768 79.4031 87.9408 80.972C88.2048 82.5416 87.8352 84.152 86.912 85.448L82 82C86.912 85.44 86.912 85.448 86.904 85.448V85.456L86.896 85.472L86.88 85.496L86.84 85.552L86.728 85.704C86.2784 86.3064 85.7864 86.8752 85.256 87.408C83.9704 88.7392 82.5496 89.932 81.016 90.968C75.9778 94.3152 70.0486 96.0688 64 96C56.432 96 50.784 93.536 46.992 90.96C44.9855 89.6024 43.1741 87.9768 41.608 86.128C41.4936 85.9888 41.3816 85.8472 41.272 85.704L41.16 85.544L41.12 85.496L41.104 85.472V85.456H41.096L46 82L41.088 85.44C40.1757 84.1376 39.8174 82.5272 40.0919 80.9608C40.3665 79.3951 41.2512 78.0022 42.552 77.088H42.56Z" fill="black"/>
</svg>
