<svg width="128" height="128" viewBox="0 0 128 128" fill="none" xmlns="http://www.w3.org/2000/svg">
<path fill-rule="evenodd" clip-rule="evenodd" d="M64 126C98.2417 126 126 98.2417 126 64C126 29.7583 98.2417 2 64 2C29.7583 2 2 29.7583 2 64C2 98.2417 29.7583 126 64 126ZM69.2962 35.2722C67.5583 33.5343 64.7405 33.5343 63.0027 35.2722C61.2648 37.0101 61.2648 39.8278 63.0027 41.5657L80.6232 59.1865H36.4814C34.0237 59.1865 32.0312 61.1789 32.0312 63.6367C32.0312 66.0945 34.0237 68.0869 36.4814 68.0869H80.6232L63.0027 85.7079C61.2648 87.4458 61.2648 90.2631 63.0027 92.0011C64.7405 93.739 67.5583 93.739 69.2962 92.0011L94.5138 66.7835C96.2517 65.0456 96.2517 62.2278 94.5138 60.4899L69.2962 35.2722Z" fill="black"/>
</svg>
