<?xml version="1.0" standalone="no"?>
<!DOCTYPE svg PUBLIC "-//W3C//DTD SVG 20010904//EN"
 "http://www.w3.org/TR/2001/REC-SVG-20010904/DTD/svg10.dtd">
<svg version="1.0" xmlns="http://www.w3.org/2000/svg"
 width="512.000000pt" height="512.000000pt" viewBox="0 0 512.000000 512.000000"
 preserveAspectRatio="xMidYMid meet">
<metadata>
Created by potrace 1.11, written by Peter Selinger 2001-2013
</metadata>
<g transform="translate(0.000000,512.000000) scale(0.100000,-0.100000)"
fill="#000000" stroke="none">
<path d="M1310 3025 l0 -115 182 -2 183 -3 0 -462 0 -463 132 0 133 0 0 465 0
465 183 0 183 0 0 115 1 115 -499 0 -498 0 0 -115z"/>
<path d="M2530 2560 l0 -581 123 3 122 3 0 367 c0 201 3 369 6 373 4 3 16 -18
29 -47 12 -29 33 -75 45 -103 12 -27 39 -88 60 -135 20 -47 44 -101 53 -120 8
-19 37 -84 63 -145 l47 -110 90 -3 90 -3 12 38 c7 21 16 43 20 48 3 6 17 35
30 65 12 30 30 71 38 90 9 19 16 37 17 40 2 5 24 56 64 142 11 26 21 49 21 52
0 2 16 38 35 79 19 41 35 79 35 85 0 5 7 15 15 22 12 10 14 -31 14 -327 0
-186 0 -355 0 -375 l1 -38 120 0 c89 0 120 3 121 13 1 16 1 1095 0 1125 -1 22
-2 22 -154 22 l-153 0 -22 -47 c-12 -27 -33 -75 -47 -108 -15 -33 -33 -73 -40
-90 -8 -16 -35 -79 -61 -140 -26 -60 -59 -137 -74 -170 -15 -33 -37 -86 -50
-117 -13 -32 -28 -58 -32 -58 -5 0 -20 26 -34 58 -14 31 -29 66 -34 77 -5 11
-24 56 -43 100 -37 84 -127 292 -157 360 -10 22 -27 61 -38 88 l-21 47 -155 0
-156 0 0 -580z"/>
</g>
</svg>
